<?xml version="1.0" encoding="utf-8"?>
<!-- Generator: Adobe Illustrator 15.1.0, SVG Export Plug-In . SVG Version: 6.00 Build 0)  -->
<!DOCTYPE svg PUBLIC "-//W3C//DTD SVG 1.1//EN" "http://www.w3.org/Graphics/SVG/1.1/DTD/svg11.dtd">
<svg version="1.1" id="Layer_1" xmlns="http://www.w3.org/2000/svg" xmlns:xlink="http://www.w3.org/1999/xlink" x="0px" y="0px"
	 width="75px" height="86px" viewBox="0 0 75 86" style="enable-background:new 0 0 75 86;" xml:space="preserve">
<style type="text/css">
<![CDATA[
	.st0{fill:#14A249;}
	.st1{fill:#FFFFFF;}
]]>
</style>
<g>
	<g>
		<g>
			<path class="st0" d="M72.9,62.5c0,2.9-2.5,5.2-5.5,5.2H8.7c-3,0-5.5-2.3-5.5-5.2V8.7c0-2.9,2.5-5.2,5.5-5.2h58.7
				c3,0,5.5,2.3,5.5,5.2V62.5z"/>
			<g>
				<path class="st0" d="M0.5,62.3C0.5,62.4,0.5,62.5,0.5,62.3L0.5,62.3z"/>
				<path class="st0" d="M31.5,0.3C31.6,0.3,31.6,0.3,31.5,0.3c0.1-0.1,0.2-0.1,0.3-0.2L31.5,0.3z"/>
				<path class="st0" d="M45.2,0.7C45.2,0.7,45.2,0.7,45.2,0.7C45.2,0.7,45.3,0.7,45.2,0.7z"/>
				<path class="st0" d="M0.7,8.9c0,0.1,0,0.2,0,0.2C0.7,9.1,0.7,9,0.7,8.9z"/>
				<path class="st0" d="M25.2,69.9C25.2,69.9,25.2,69.9,25.2,69.9C25.2,70,25.2,70,25.2,69.9L25.2,69.9z"/>
				<path class="st0" d="M24.9,70.1C24.6,70,25,70,25.1,69.9c-0.3-0.1-0.7-0.1-1-0.1C24.1,70,24.8,70,24.9,70.1z"/>
				<path class="st0" d="M71.4,68.5l-0.1,0.1C71.3,68.6,71.4,68.6,71.4,68.5z"/>
				<path class="st0" d="M6.3,8.3C6.3,8.3,6.3,8.3,6.3,8.3C6.3,8.3,6.3,8.3,6.3,8.3z"/>
				<path class="st0" d="M63.4,69.5l-0.1,0.2C63.4,69.6,63.4,69.6,63.4,69.5z"/>
				<path class="st0" d="M31.8,0.1L31.8,0.1C31.8,0,31.8,0.1,31.8,0.1z"/>
				<path class="st0" d="M57.8,0.9c0,0.1,0,0.1,0.1,0.1c0,0,0,0,0,0L57.8,0.9z"/>
				<path class="st0" d="M72.7,54.2C72.7,54.2,72.8,54.2,72.7,54.2l-0.1-0.3C72.7,54,72.7,54.1,72.7,54.2z"/>
				<path class="st0" d="M74.7,7.6C74.7,7.7,74.8,7.7,74.7,7.6c0.1-0.3-0.1-1.5-0.9-2.6l-0.2,0c0,0,0.4,0.6,0.7,1.2
					c0.2,0.3,0.2,0.7,0.3,0.9C74.7,7.5,74.7,7.6,74.7,7.6z"/>
				<path class="st0" d="M69.7,26.8l0.4-1.8c0.2,5.9-0.2,8.7,0.1,13.7l-0.1-0.3c-0.1,0.7,0.9,1.2-0.3,9.3h0c0,0.3,0.1,0.3,0,0.8
					l0.3-1.4c0.1,0.8,0.3,1.6,0.4,2.7c0,0.2-0.1,0.3-0.2,0.3l0.1,2.8l-0.3,0.8c0.2,0.8,0.8,0.5,0.4,2.7c0.4-0.8,0.3,1.1,0.5,0.8
					c-0.1,0.1-0.1,0.4-0.2,0.6c0,1.3,0.2,3.9,0.4,4.5c0,0,0.9-5.2,1.3-6.7c-0.1,1.9,0.1,0.5,0.2,0.1l-0.1-0.1
					c0.1-1.1,0.4-1.1,0.4-1.7c0,0,0,0-0.1,0l0,0.1c0,0.1-0.1,0-0.1,0c-0.1,0-0.1,0-0.1-0.3l0,0.1c0-0.5,0-1.3,0-1.6l0.2,0
					c-0.4-0.8,0.6-5.6,0.7-6.8c0.3-1.1-0.1-2.5,0.1-3.9c0.1-2.2,0.3-1.1,0.5-2.3c0.1-1.4-0.3,0.3-0.3-0.3l0.3-1.7
					c0,1,0.2,0.5,0.2,0.3c0-1.5,0.4-3.8,0-4.2c0.2-2,0.4-2,0.4-2.8c-0.1,0.3-0.2,0.8-0.2,0.8c0.2-0.8,0-0.4-0.1-0.1
					c-0.2-1.2,0.8-6.2,0.3-6.5h0.1c-0.4-0.3-0.7,0.2-0.9-0.7l0.2-0.6L74,22.8c0.1-0.6,0.2-0.3,0.3-0.3c-0.2-1.4,0-3.3,0.1-5l-1,1.8
					c0.2-1.4,0.7-3.9,0.4-4.2l0.3-0.8c0.6-2.8-0.3-2-0.1-3.1l0.4-1.4l0,1.4c0.1-0.7,0.2-1.2,0.2-1.7c0-0.2,0.1-0.4,0.1-0.7
					c0-0.3,0.1-0.6,0.1-1l0,0c0,0.1,0,0.2,0,0.2l-0.1-0.3c-0.2-0.2-0.5-1.2-1.1-2.3c-0.5-0.8-1.1-1.4-1.8-1.9
					c-0.8-0.5-1.7-1.1-3.1-1.5c0,0-0.2,0.1-0.4,0.1c-0.2,0.1-0.4,0.2-0.4,0.2S67.5,2.1,67,2c-0.4-0.1-0.8-0.1-0.8-0.1V1.6
					c0.4,0,1,0,1.5,0c0.7,0,1.6,0.1,2.3,0.4c1.6,0.5,3.1,1.7,3.8,3L74,5c-0.5-0.8-1.1-1.5-1.8-1.9c-0.7-0.5-1.4-0.8-1.9-1
					c-0.5-0.3-1.9-0.9-0.8-0.8c0,0-0.3,0-0.6,0c-0.3,0-0.6,0.1-0.6,0.1c-0.3,0-0.7,0-1,0c-0.2,0-0.5,0-0.7,0c-0.4,0-0.8,0-1.1,0
					c-0.7,0-1.2,0-1.7,0c-1.1,0-2.2-0.1-4.4-0.3l0.4,0.1c-0.9,0.1-1.7,0.2-2-0.1c-2.6,0-5.4-0.2-7.1-0.6l-0.4,0.3
					c-0.6,0-1.4-0.5-1.7-0.1l-1.2,0.2c-0.8,0-1.2,0.2-2.1,0l0,0l0,0c-0.1,0-0.1,0-0.2,0c0,0,0,0,0,0c-1.7-0.2,0,0.3-2,0.1
					c-0.6-0.2-0.7,0.4-1.7,0.4l-1-0.5c-1.7-0.3-2,0.2-4.6,0.2c-1.2-0.2-1.8-0.6-1-1c-1.1,0.5-0.5,0.3-2,0.5
					c-0.2-0.2-0.1-0.2,0.3-0.4c-1.3-0.2-0.8,0.2-1.8,0.2c-0.3,0.4-0.6,0.9-0.9,0.9l0.4,0.1c-1,0.2-2.2,0.3-3.4,0.1l0-0.2l-1.3,0.1
					l-0.1-0.2l-1.8,0.1l0.3,0.1c-0.4,0-1.8,0.1-2.7,0l0-0.1c-2.3-0.4-4.2,0.1-6.8,0.2L15.6,1c-0.9-0.3-0.2,0.4-1.3,0.3L14.3,1
					c-1,0.4-1.2-0.1-1.9-0.2l0.3,0.4L11.4,1c-1.4-0.1-0.8-0.5-0.6-0.7L9.9,0.6L9.7,0.3C9.3,0.5,9.2,0.5,8.9,0.4c-0.1,0-0.1,0-0.2,0
					c-0.1,0-0.2,0-0.4,0c-0.3,0-0.6,0-1.1,0.2C7.2,0.4,7.6,0.3,7,0.3c0,0-0.7,0.3-1.4,0.7C5.2,1.2,4.9,1.4,4.7,1.6
					C4.5,1.8,4.3,1.9,4.3,1.9s0.1-0.1,0.2-0.2c0.1-0.1,0.3-0.2,0.5-0.3c0.4-0.3,0.8-0.4,0.8-0.4l0,0.6C5.1,2,4.6,2.3,4.1,2.5
					c-0.5,0.3-0.9,0.5-1.3,1c0,0,0.1-0.2,0.3-0.4C3.2,3,3.4,2.8,3.4,2.8C2.6,3.6,2.3,4,2,4.4C1.7,4.7,1.4,5,1.1,5.5
					c0.3-0.3,0.7-0.8,0.3,0.1C1.2,6.2,1.1,5.8,0.8,6.4C1,6.5,1,7,1,7.5c0,0.3,0,0.6,0,0.9c0,0.1,0,0.3,0,0.4c0,0.1,0,0.2,0,0.4
					c-0.1,0-0.1,0-0.1-0.1c0.1,0.2,0.1,0.4,0.1,0.8L0.4,9.7l0.4,0.8c-0.1,0.5,0.2,1.3-0.1,1.2l-0.1-0.3l-0.1,4l-0.3,0.1
					c0.4,0.4-0.2,2.2,0.4,2.1c-0.3,0.8,0.2,3-0.4,2.6c0,2.7,0.5,4.1,0.2,7.3c-0.5,1.1-0.4,4.3-0.4,6.4c0.2,4,0.4,6.7,0.6,10.8
					c-0.7,2.5,0.2,6.2-0.2,8.9l0.3,0.7c-0.5,1.8,0.1,4.5-0.3,7c0.1,0.6,0.2,0.9,0.2,1.1c0-0.1,0.1-0.3,0.3-0.3c0,0.1,0,0.2,0,0.3
					c0,0.1,0,0.2,0,0.4c0,0.4,0,0.7,0.1,1c0.1,0.7,0.2,1.2,0,1.1l-0.1-0.3c-0.2,0,0,0.8,0.6,1.7c0.5,0.9,1.4,1.7,1.7,2.2
					c0,0-0.1-0.2-0.1-0.4c0-0.2-0.1-0.4-0.1-0.4s0.1,0.1,0.2,0.2c0.1,0.1,0.3,0.3,0.5,0.5c0.4,0.3,0.8,0.6,0.8,0.6
					c0,0-0.5-0.2-0.5-0.2c1,0.5,1.9,0.9,2.8,1C7.2,70,7.6,70,8,70c0.2,0,0.4,0,0.6,0c0.2,0,0.3,0,0.5,0c1.2,0,2.2,0,3.3,0.1
					c2.1,0.1,4.1,0.2,6.9-0.2c-0.7,0.4,1.1-0.2,1.2,0.2c1.4,0.6,2.6-0.1,3.7-0.3c0,0,0,0,0.1-0.1l2,0.1c-1.2,0.6,1.4-0.5,0.3,0
					c5.2,0.4,12,0,18,0.2l-0.3-0.2c1.5,0,3.4-0.2,4.6,0.1c1.2,0.2,2.5-0.4,3-0.4c1.3-0.3,2.4,0.3,1.9,0.2c1.4-0.1,2.6-0.6,4.5-0.4
					c0.6,0.5,5.1-0.5,5.2,0.1l0,0c1.2,0.2,2.4,0.1,3.6,0.1l0.4,0l0.6-0.1c0.4,0,0.8-0.1,1.2-0.2c0.8-0.2,1.6-0.5,2.3-0.9
					c0,0,0,0.1-0.1,0.2c0,0,0.3-0.3,0.7-0.9c0.4-0.5,0.8-1.3,1.1-2.1c0.2-0.8,0.3-1.6,0.2-2.2c0-0.3-0.1-0.5-0.1-0.7
					c0-0.2-0.1-0.2-0.1-0.2s-0.1,0.1-0.3,0.2c-0.2,0.1-0.4,0.3-0.7,0.4c-0.3,0.1-0.5,0.2-0.7,0.3c-0.2,0.1-0.3,0.1-0.3,0.1
					s-0.2,0.2-0.4,0.3c-0.2,0.2-0.6,0.4-1,0.5c-0.4,0.1-0.7,0.1-1,0.1c-0.2,0-0.4-0.1-0.4-0.1c0,0-0.1,0-0.2,0.1
					c-0.1,0.1-0.4,0.1-0.6,0.2c-0.1,0-0.1,0-0.3,0c-0.2,0-0.3,0-0.5,0c-0.3,0-0.7,0-1,0c-0.7,0-1.5,0-2.3,0.1
					c-3.1,0.1-6.2,0.2-6.2,0.2l-9.9-0.6l-24.1,0.2l-1.7,0.4c-2.4-0.4-5.1-0.3-7.8-0.3c-1.4,0-2.8,0.1-4.1,0.1c-0.3,0-0.7,0-1,0
					c-0.2,0-0.3,0-0.5-0.1c-0.3-0.1-0.6-0.2-0.8-0.4l-0.2,0.3c-0.6-0.4-0.4-0.6-0.4-0.7c-0.2-0.3-0.4-0.6-0.5-0.9c0-0.1,0-0.2,0-0.2
					c0,0,0-0.1,0-0.1c0,0,0,0,0-0.1l0-0.2l0-1.3l-0.1-5c0-3.4-0.1-6.7-0.1-10C6,39.3,6,32.9,6.2,26.9c0.2-1.2,0.1-4.7,0.4-5.6
					c-0.4-3.9-0.4-8-0.4-12l0,0.1c0,0,0-0.4,0-0.8c0-0.2,0-0.4,0-0.4c0,0,0.1,0,0.1,0c-0.1-0.4,0.2-1,0.8-1.3
					c0.3-0.2,0.6-0.3,0.9-0.3c0.2,0,0.3,0,0.5,0c0.3,0,0.5,0,0.8,0l-0.1,0C24,6.7,37.8,6.1,52.6,6.6c3.4,0.3,7.1,0.2,11,0.2
					c1,0,1.9,0,2.9,0l0.7,0c0.1,0,0.3,0,0.3,0l0.2,0c0.2,0,0.4,0,0.6,0.1c0.8,0.3,1.4,1.1,1.3,1.7c-0.1-0.2-0.1,1.3-0.2,2.9
					c0,1.7,0,3.9,0,6C69.5,21.8,69.6,26.1,69.7,26.8z"/>
				<path class="st0" d="M70.2,50.2L70.2,50.2C70,50.2,70.1,50.3,70.2,50.2z"/>
				<polygon class="st0" points="74.4,17.4 74.3,17.5 74.6,17.1 				"/>
				<path class="st0" d="M74.5,38.4c0-0.9,0-1-0.1-0.9C74.4,37.9,74.4,38.2,74.5,38.4z"/>
				<path class="st0" d="M70.4,58c0,0.5,0.1,0.3,0.2,0c0-0.5,0-0.9,0-0.9C70.6,57.4,70.5,57.7,70.4,58z"/>
				<path class="st0" d="M72.5,55.9l0.1,0.2C72.6,55.8,72.6,55.8,72.5,55.9z"/>
			</g>
		</g>
		<g>
			<path class="st0" d="M72.9,62.5c0,2.9-2.5,5.2-5.5,5.2H8.7c-3,0-5.5-2.3-5.5-5.2V8.7c0-2.9,2.5-5.2,5.5-5.2h58.7
				c3,0,5.5,2.3,5.5,5.2V62.5z"/>
			<g>
				<path class="st0" d="M0.5,62.3C0.5,62.4,0.5,62.5,0.5,62.3L0.5,62.3z"/>
				<path class="st0" d="M31.5,0.3C31.6,0.3,31.6,0.3,31.5,0.3c0.1-0.1,0.2-0.1,0.3-0.2L31.5,0.3z"/>
				<path class="st0" d="M45.2,0.7C45.2,0.7,45.2,0.7,45.2,0.7C45.2,0.7,45.3,0.7,45.2,0.7z"/>
				<path class="st0" d="M0.7,8.9c0,0.1,0,0.2,0,0.2C0.7,9.1,0.7,9,0.7,8.9z"/>
				<path class="st0" d="M25.2,69.9C25.2,69.9,25.2,69.9,25.2,69.9C25.2,70,25.2,70,25.2,69.9L25.2,69.9z"/>
				<path class="st0" d="M24.9,70.1C24.6,70,25,70,25.1,69.9c-0.3-0.1-0.7-0.1-1-0.1C24.1,70,24.8,70,24.9,70.1z"/>
				<path class="st0" d="M71.4,68.5l-0.1,0.1C71.3,68.6,71.4,68.6,71.4,68.5z"/>
				<path class="st0" d="M6.3,8.3C6.3,8.3,6.3,8.3,6.3,8.3C6.3,8.3,6.3,8.3,6.3,8.3z"/>
				<path class="st0" d="M63.4,69.5l-0.1,0.2C63.4,69.6,63.4,69.6,63.4,69.5z"/>
				<path class="st0" d="M31.8,0.1L31.8,0.1C31.8,0,31.8,0.1,31.8,0.1z"/>
				<path class="st0" d="M57.8,0.9c0,0.1,0,0.1,0.1,0.1c0,0,0,0,0,0L57.8,0.9z"/>
				<path class="st0" d="M72.7,54.2C72.7,54.2,72.8,54.2,72.7,54.2l-0.1-0.3C72.7,54,72.7,54.1,72.7,54.2z"/>
				<path class="st0" d="M74.7,7.6C74.7,7.7,74.8,7.7,74.7,7.6c0.1-0.3-0.1-1.5-0.9-2.6l-0.2,0c0,0,0.4,0.6,0.7,1.2
					c0.2,0.3,0.2,0.7,0.3,0.9C74.7,7.5,74.7,7.6,74.7,7.6z"/>
				<path class="st0" d="M69.7,26.8l0.4-1.8c0.2,5.9-0.2,8.7,0.1,13.7l-0.1-0.3c-0.1,0.7,0.9,1.2-0.3,9.3h0c0,0.3,0.1,0.3,0,0.8
					l0.3-1.4c0.1,0.8,0.3,1.6,0.4,2.7c0,0.2-0.1,0.3-0.2,0.3l0.1,2.8l-0.3,0.8c0.2,0.8,0.8,0.5,0.4,2.7c0.4-0.8,0.3,1.1,0.5,0.8
					c-0.1,0.1-0.1,0.4-0.2,0.6c0,1.3,0.2,3.9,0.4,4.5c0,0,0.9-5.2,1.3-6.7c-0.1,1.9,0.1,0.5,0.2,0.1l-0.1-0.1
					c0.1-1.1,0.4-1.1,0.4-1.7c0,0,0,0-0.1,0l0,0.1c0,0.1-0.1,0-0.1,0c-0.1,0-0.1,0-0.1-0.3l0,0.1c0-0.5,0-1.3,0-1.6l0.2,0
					c-0.4-0.8,0.6-5.6,0.7-6.8c0.3-1.1-0.1-2.5,0.1-3.9c0.1-2.2,0.3-1.1,0.5-2.3c0.1-1.4-0.3,0.3-0.3-0.3l0.3-1.7
					c0,1,0.2,0.5,0.2,0.3c0-1.5,0.4-3.8,0-4.2c0.2-2,0.4-2,0.4-2.8c-0.1,0.3-0.2,0.8-0.2,0.8c0.2-0.8,0-0.4-0.1-0.1
					c-0.2-1.2,0.8-6.2,0.3-6.5h0.1c-0.4-0.3-0.7,0.2-0.9-0.7l0.2-0.6L74,22.8c0.1-0.6,0.2-0.3,0.3-0.3c-0.2-1.4,0-3.3,0.1-5l-1,1.8
					c0.2-1.4,0.7-3.9,0.4-4.2l0.3-0.8c0.6-2.8-0.3-2-0.1-3.1l0.4-1.4l0,1.4c0.1-0.7,0.2-1.2,0.2-1.7c0-0.2,0.1-0.4,0.1-0.7
					c0-0.3,0.1-0.6,0.1-1l0,0c0,0.1,0,0.2,0,0.2l-0.1-0.3c-0.2-0.2-0.5-1.2-1.1-2.3c-0.5-0.8-1.1-1.4-1.8-1.9
					c-0.8-0.5-1.7-1.1-3.1-1.5c0,0-0.2,0.1-0.4,0.1c-0.2,0.1-0.4,0.2-0.4,0.2S67.5,2.1,67,2c-0.4-0.1-0.8-0.1-0.8-0.1V1.6
					c0.4,0,1,0,1.5,0c0.7,0,1.6,0.1,2.3,0.4c1.6,0.5,3.1,1.7,3.8,3L74,5c-0.5-0.8-1.1-1.5-1.8-1.9c-0.7-0.5-1.4-0.8-1.9-1
					c-0.5-0.3-1.9-0.9-0.8-0.8c0,0-0.3,0-0.6,0c-0.3,0-0.6,0.1-0.6,0.1c-0.3,0-0.7,0-1,0c-0.2,0-0.5,0-0.7,0c-0.4,0-0.8,0-1.1,0
					c-0.7,0-1.2,0-1.7,0c-1.1,0-2.2-0.1-4.4-0.3l0.4,0.1c-0.9,0.1-1.7,0.2-2-0.1c-2.6,0-5.4-0.2-7.1-0.6l-0.4,0.3
					c-0.6,0-1.4-0.5-1.7-0.1l-1.2,0.2c-0.8,0-1.2,0.2-2.1,0l0,0l0,0c-0.1,0-0.1,0-0.2,0c0,0,0,0,0,0c-1.7-0.2,0,0.3-2,0.1
					c-0.6-0.2-0.7,0.4-1.7,0.4l-1-0.5c-1.7-0.3-2,0.2-4.6,0.2c-1.2-0.2-1.8-0.6-1-1c-1.1,0.5-0.5,0.3-2,0.5
					c-0.2-0.2-0.1-0.2,0.3-0.4c-1.3-0.2-0.8,0.2-1.8,0.2c-0.3,0.4-0.6,0.9-0.9,0.9l0.4,0.1c-1,0.2-2.2,0.3-3.4,0.1l0-0.2l-1.3,0.1
					l-0.1-0.2l-1.8,0.1l0.3,0.1c-0.4,0-1.8,0.1-2.7,0l0-0.1c-2.3-0.4-4.2,0.1-6.8,0.2L15.6,1c-0.9-0.3-0.2,0.4-1.3,0.3L14.3,1
					c-1,0.4-1.2-0.1-1.9-0.2l0.3,0.4L11.4,1c-1.4-0.1-0.8-0.5-0.6-0.7L9.9,0.6L9.7,0.3C9.3,0.5,9.2,0.5,8.9,0.4c-0.1,0-0.1,0-0.2,0
					c-0.1,0-0.2,0-0.4,0c-0.3,0-0.6,0-1.1,0.2C7.2,0.4,7.6,0.3,7,0.3c0,0-0.7,0.3-1.4,0.7C5.2,1.2,4.9,1.4,4.7,1.6
					C4.5,1.8,4.3,1.9,4.3,1.9s0.1-0.1,0.2-0.2c0.1-0.1,0.3-0.2,0.5-0.3c0.4-0.3,0.8-0.4,0.8-0.4l0,0.6C5.1,2,4.6,2.3,4.1,2.5
					c-0.5,0.3-0.9,0.5-1.3,1c0,0,0.1-0.2,0.3-0.4C3.2,3,3.4,2.8,3.4,2.8C2.6,3.6,2.3,4,2,4.4C1.7,4.7,1.4,5,1.1,5.5
					c0.3-0.3,0.7-0.8,0.3,0.1C1.2,6.2,1.1,5.8,0.8,6.4C1,6.5,1,7,1,7.5c0,0.3,0,0.6,0,0.9c0,0.1,0,0.3,0,0.4c0,0.1,0,0.2,0,0.4
					c-0.1,0-0.1,0-0.1-0.1c0.1,0.2,0.1,0.4,0.1,0.8L0.4,9.7l0.4,0.8c-0.1,0.5,0.2,1.3-0.1,1.2l-0.1-0.3l-0.1,4l-0.3,0.1
					c0.4,0.4-0.2,2.2,0.4,2.1c-0.3,0.8,0.2,3-0.4,2.6c0,2.7,0.5,4.1,0.2,7.3c-0.5,1.1-0.4,4.3-0.4,6.4c0.2,4,0.4,6.7,0.6,10.8
					c-0.7,2.5,0.2,6.2-0.2,8.9l0.3,0.7c-0.5,1.8,0.1,4.5-0.3,7c0.1,0.6,0.2,0.9,0.2,1.1c0-0.1,0.1-0.3,0.3-0.3c0,0.1,0,0.2,0,0.3
					c0,0.1,0,0.2,0,0.4c0,0.4,0,0.7,0.1,1c0.1,0.7,0.2,1.2,0,1.1l-0.1-0.3c-0.2,0,0,0.8,0.6,1.7c0.5,0.9,1.4,1.7,1.7,2.2
					c0,0-0.1-0.2-0.1-0.4c0-0.2-0.1-0.4-0.1-0.4s0.1,0.1,0.2,0.2c0.1,0.1,0.3,0.3,0.5,0.5c0.4,0.3,0.8,0.6,0.8,0.6
					c0,0-0.5-0.2-0.5-0.2c1,0.5,1.9,0.9,2.8,1C7.2,70,7.6,70,8,70c0.2,0,0.4,0,0.6,0c0.2,0,0.3,0,0.5,0c1.2,0,2.2,0,3.3,0.1
					c2.1,0.1,4.1,0.2,6.9-0.2c-0.7,0.4,1.1-0.2,1.2,0.2c1.4,0.6,2.6-0.1,3.7-0.3c0,0,0,0,0.1-0.1l2,0.1c-1.2,0.6,1.4-0.5,0.3,0
					c5.2,0.4,12,0,18,0.2l-0.3-0.2c1.5,0,3.4-0.2,4.6,0.1c1.2,0.2,2.5-0.4,3-0.4c1.3-0.3,2.4,0.3,1.9,0.2c1.4-0.1,2.6-0.6,4.5-0.4
					c0.6,0.5,5.1-0.5,5.2,0.1l0,0c1.2,0.2,2.4,0.1,3.6,0.1l0.4,0l0.6-0.1c0.4,0,0.8-0.1,1.2-0.2c0.8-0.2,1.6-0.5,2.3-0.9
					c0,0,0,0.1-0.1,0.2c0,0,0.3-0.3,0.7-0.9c0.4-0.5,0.8-1.3,1.1-2.1c0.2-0.8,0.3-1.6,0.2-2.2c0-0.3-0.1-0.5-0.1-0.7
					c0-0.2-0.1-0.2-0.1-0.2s-0.1,0.1-0.3,0.2c-0.2,0.1-0.4,0.3-0.7,0.4c-0.3,0.1-0.5,0.2-0.7,0.3c-0.2,0.1-0.3,0.1-0.3,0.1
					s-0.2,0.2-0.4,0.3c-0.2,0.2-0.6,0.4-1,0.5c-0.4,0.1-0.7,0.1-1,0.1c-0.2,0-0.4-0.1-0.4-0.1c0,0-0.1,0-0.2,0.1
					c-0.1,0.1-0.4,0.1-0.6,0.2c-0.1,0-0.1,0-0.3,0c-0.2,0-0.3,0-0.5,0c-0.3,0-0.7,0-1,0c-0.7,0-1.5,0-2.3,0.1
					c-3.1,0.1-6.2,0.2-6.2,0.2l-9.9-0.6l-24.1,0.2l-1.7,0.4c-2.4-0.4-5.1-0.3-7.8-0.3c-1.4,0-2.8,0.1-4.1,0.1c-0.3,0-0.7,0-1,0
					c-0.2,0-0.3,0-0.5-0.1c-0.3-0.1-0.6-0.2-0.8-0.4l-0.2,0.3c-0.6-0.4-0.4-0.6-0.4-0.7c-0.2-0.3-0.4-0.6-0.5-0.9c0-0.1,0-0.2,0-0.2
					c0,0,0-0.1,0-0.1c0,0,0,0,0-0.1l0-0.2l0-1.3l-0.1-5c0-3.4-0.1-6.7-0.1-10C6,39.3,6,32.9,6.2,26.9c0.2-1.2,0.1-4.7,0.4-5.6
					c-0.4-3.9-0.4-8-0.4-12l0,0.1c0,0,0-0.4,0-0.8c0-0.2,0-0.4,0-0.4c0,0,0.1,0,0.1,0c-0.1-0.4,0.2-1,0.8-1.3
					c0.3-0.2,0.6-0.3,0.9-0.3c0.2,0,0.3,0,0.5,0c0.3,0,0.5,0,0.8,0l-0.1,0C24,6.7,37.8,6.1,52.6,6.6c3.4,0.3,7.1,0.2,11,0.2
					c1,0,1.9,0,2.9,0l0.7,0c0.1,0,0.3,0,0.3,0l0.2,0c0.2,0,0.4,0,0.6,0.1c0.8,0.3,1.4,1.1,1.3,1.7c-0.1-0.2-0.1,1.3-0.2,2.9
					c0,1.7,0,3.9,0,6C69.5,21.8,69.6,26.1,69.7,26.8z"/>
				<path class="st0" d="M70.2,50.2L70.2,50.2C70,50.2,70.1,50.3,70.2,50.2z"/>
				<polygon class="st0" points="74.4,17.4 74.3,17.5 74.6,17.1 				"/>
				<path class="st0" d="M74.5,38.4c0-0.9,0-1-0.1-0.9C74.4,37.9,74.4,38.2,74.5,38.4z"/>
				<path class="st0" d="M70.4,58c0,0.5,0.1,0.3,0.2,0c0-0.5,0-0.9,0-0.9C70.6,57.4,70.5,57.7,70.4,58z"/>
				<path class="st0" d="M72.5,55.9l0.1,0.2C72.6,55.8,72.6,55.8,72.5,55.9z"/>
			</g>
		</g>
	</g>
	<path class="st1" d="M7.5,17.8c0-0.8,0.1-1.3,0.3-1.6c0.2-0.3,0.7-0.4,1.4-0.4c0.2,0,0.6,0,1.1,0c0.5,0,1,0.1,1.4,0.1
		c0.5,0,0.9,0.1,1.3,0.1c0.4,0,0.6,0,0.7,0c1.2,0,2.1,0,2.8-0.1c0.7-0.1,1.3-0.1,1.7-0.1c0.4,0,0.7,0.1,0.9,0.3
		c0.2,0.2,0.4,0.6,0.5,1c0.1,0.5,0.1,1,0.2,1.8c0,0.7,0,1.6,0,2.6c0,1.8-0.1,3.4-0.4,4.5c-0.3,1.2-0.8,2.1-1.4,2.9s-1.5,1.3-2.5,1.6
		c-1,0.4-2.3,0.6-3.7,0.8c-0.2,0-0.4,0-0.6,0.1c-0.2,0-0.3,0-0.5,0c-0.7,0-1.3-0.1-1.7-0.4c-0.4-0.3-0.7-0.7-0.8-1.3s-0.3-1.2-0.3-2
		c0-0.8,0-1.7,0-2.7c0-1.2-0.1-2.4-0.2-3.5C7.6,20.2,7.5,19,7.5,17.8z M10.4,19.4c0,0.6,0,1.2,0.1,1.7c0,0.5,0.1,1,0.1,1.4
		c0,0.1,0,0.3,0,0.6s0,0.8,0,1.3c0,0.5,0,1,0,1.4c0,0.5,0,0.8,0,1.1c0,0.3,0.2,0.4,0.6,0.4c0.8,0,1.6-0.3,2.2-1
		c0.6-0.6,0.9-1.7,0.9-3.1c0-1.1,0-1.9,0-2.5c0-0.5,0-1-0.1-1.5L10.4,19.4z M28.4,14.7c0.2,0.9,0.3,1.9,0.4,2.9s0.1,2.1,0.2,3.2
		c0.6-0.1,1.2-0.2,1.7-0.3c0.5-0.1,1-0.1,1.4-0.2c0.1,0,0.3,0,0.4,0s0.3,0,0.4,0c-0.1-0.9-0.2-1.8-0.3-2.7c-0.1-0.9-0.3-1.8-0.5-2.6
		c-0.1-0.4-0.2-0.8-0.4-1.2c-0.2-0.4-0.3-0.9-0.5-1.3c-0.2-0.4-0.3-0.9-0.4-1.3c-0.1-0.4-0.2-0.9-0.2-1.3c0-1,0.3-1.7,0.8-2.1
		c0.6-0.4,1.2-0.6,2-0.6c0.3,0,0.6,0,1,0.1c0.4,0.1,0.8,0.2,1.1,0.4C35.7,7.8,36,8,36.4,8.2c0.3,0.2,0.6,0.4,0.9,0.7
		s0.4,0.5,0.5,0.8c0.1,0.3,0.2,0.6,0.3,0.9c0.1,0.3,0.2,0.7,0.2,1s0.2,0.6,0.3,0.9c0.4,0.2,0.7,0.9,0.8,1.8c0.2,1,0.2,2.2,0.2,3.6
		c0,1,0,2.1-0.1,3.4c-0.1,1.3-0.2,2.5-0.4,3.8c-0.2,1.3-0.4,2.5-0.7,3.7c-0.3,1.2-0.5,2.2-0.9,3c-0.4,1-0.9,1.9-1.4,2.5
		c-0.5,0.6-1.1,1-1.7,1c-0.7,0-1.2-0.4-1.5-1.1c-0.3-0.7-0.4-1.5-0.3-2.4c0.1-0.5,0.1-1.1,0.1-1.8c0-0.6,0-1.3,0-1.9
		c0-0.7,0-1.3,0-2c0-0.6,0-1.3,0-1.8v-0.6c-0.7,0.1-1.4,0.1-2,0.2s-1.3,0-1.9,0c0,1.7-0.1,3.3-0.2,4.8c-0.1,1.5-0.3,2.7-0.6,3.7
		c-0.3,1.3-0.7,2.2-1.2,2.7c-0.5,0.5-1,0.8-1.4,0.8c-0.4,0-0.7-0.2-0.9-0.6s-0.4-0.8-0.5-1.3C24.1,33.2,24,32.6,24,32
		s-0.1-1.1-0.1-1.7c0-0.6-0.1-1.5-0.1-2.7c-0.1-1.2-0.1-2.5-0.2-3.8c-0.1-1.4-0.2-2.7-0.4-4c-0.1-1.3-0.3-2.5-0.5-3.3
		c-0.1-0.4-0.2-0.8-0.3-1.3c-0.1-0.4-0.2-0.9-0.3-1.3c-0.1-0.4-0.1-0.9-0.2-1.4c0-0.5,0-0.9,0.1-1.3c0.2-0.9,0.5-1.4,0.9-1.6
		c0.4-0.2,1-0.3,1.7-0.1c0.5,0.1,1,0.4,1.6,0.8c0.6,0.4,1,0.8,1.4,1.2c0.4,0.5,0.6,1.1,0.6,1.7C28.2,13.5,28.2,14.1,28.4,14.7z"/>
	<path class="st1" d="M59.7,38.3c-0.5,0.1-1.1,0.2-2,0.2c-0.9,0-1.9,0-2.9,0c-1.1,0-2.2-0.1-3.4-0.2c-1.2-0.1-2.3-0.2-3.3-0.4
		c-1.6-0.3-2.8-0.7-3.6-1c-0.8-0.4-1.1-0.8-1.1-1.3c0-0.3,0.1-0.5,0.4-0.7c0.3-0.2,0.7-0.3,1.1-0.3c0.4-0.1,0.9-0.1,1.5-0.1
		c0.5,0,1,0,1.5,0.1c1.5,0.1,3.1,0.2,4.8,0.2s3.5-0.1,5.2-0.3c0.4,0,0.8-0.1,1.2-0.2c0.4-0.1,0.8-0.2,1.3-0.3
		c0.4-0.1,0.9-0.2,1.3-0.3c0.4-0.1,0.8-0.1,1.2,0c0.8,0.1,1.3,0.4,1.5,0.9c0.2,0.5,0.3,0.9,0.2,1.5c-0.1,0.4-0.3,0.8-0.6,1.1
		c-0.4,0.3-0.8,0.5-1.3,0.7c-0.5,0.2-1,0.3-1.5,0.4C60.4,38.2,60,38.2,59.7,38.3z M47.7,19.4c0.6-0.1,1.3-0.1,2.2-0.2
		c0.8,0,1.7-0.1,2.5,0c0.9,0,1.7,0,2.5,0.1c0.8,0.1,1.5,0.1,2.1,0.3c0.4,0.1,0.8,0.2,1.2,0.3c0.3,0.1,0.7,0.2,0.9,0.4
		c0.3,0.2,0.5,0.4,0.7,0.7s0.4,0.6,0.5,1c0.2,0.5,0.3,1,0.4,1.6c0.1,0.6,0.1,1.2,0.1,1.7c0,0.3,0,0.6,0,0.9c0,0.3,0,0.7-0.1,1
		c0,0.3-0.1,0.6-0.1,0.9c0,0.3-0.1,0.5-0.1,0.7c-0.5,1.7-1.6,2.6-3.3,2.6c-0.8,0-1.3-0.2-1.7-0.6s-0.4-0.8-0.3-1.4
		c0.1-0.3,0.2-0.7,0.3-1.2c0.1-0.5,0.2-1,0.2-1.5c0.1-0.5,0.1-1.1,0.2-1.6c0.1-0.5,0.1-1,0.1-1.4c0-0.4,0-0.8,0-1.1
		c0-0.3-0.1-0.5-0.2-0.6c-0.1-0.2-0.3-0.3-0.5-0.4c-0.2-0.1-0.5-0.2-0.9-0.2c-0.4-0.1-0.9-0.1-1.5-0.1c-0.7,0-1.3,0-2-0.1
		c-0.7,0-1.4,0-2.1,0c-0.7,0-1.2,0-1.7,0c-0.4,0-0.6-0.1-0.7-0.2c-0.1-0.1-0.2-0.3-0.2-0.4c0-0.1,0-0.2,0-0.3c0-0.1,0.1-0.2,0.2-0.3
		c0.1-0.1,0.2-0.2,0.4-0.3C47.2,19.5,47.4,19.4,47.7,19.4z"/>
	<path class="st1" d="M23.2,46.3c0.5,0,1,0.1,1.4,0.3s0.6,0.4,0.6,0.8c0,0.2-0.1,0.3-0.3,0.5c-0.2,0.1-0.4,0.2-0.7,0.3
		c-0.3,0.1-0.6,0.2-0.9,0.2c-0.3,0.1-0.7,0.1-1,0.1c0.2,0.4,0.3,0.8,0.3,1.3c0,0.5,0.1,0.9,0.1,1.4c0,0.1,0,0.4-0.1,0.8
		c0,0.4-0.1,0.9-0.1,1.3s-0.1,0.9-0.1,1.3c0,0.4-0.1,0.7-0.1,0.7c0,0.3-0.1,0.6-0.2,0.9c-0.1,0.3-0.2,0.6-0.4,0.9
		c1.2,0,2.2,0.1,3,0.2c0.8,0.1,1.2,0.4,1.2,0.9c0,0.4-0.2,0.8-0.7,1.1c-0.5,0.3-1,0.5-1.7,0.7c-0.7,0.2-1.5,0.3-2.5,0.4
		C20,60.4,19,60.5,18,60.5c-1,0-2,0-2.9,0c-0.9,0-1.8-0.1-2.5-0.2c-0.8-0.1-1.5-0.3-2.1-0.6c-0.6-0.3-0.8-0.8-0.8-1.5
		c0-0.5,0.2-0.8,0.7-0.9c0.2,0,0.5,0,1-0.1c0.4,0,1,0,1.6-0.1c-0.1-0.2-0.2-0.4-0.2-0.6c0-0.3,0-0.8-0.1-1.5c0-0.7-0.1-1.4-0.1-2.2
		c0-0.8-0.1-1.5-0.2-2.2c-0.1-0.7-0.1-1.2-0.1-1.5c-0.1-0.7,0-1.2,0.2-1.6l-0.4-0.1c-0.8-0.1-1.4-0.3-1.9-0.5
		c-0.5-0.2-0.7-0.4-0.8-0.7c0-0.2,0.1-0.3,0.3-0.5c0.2-0.1,0.4-0.2,0.6-0.3c0.2-0.1,0.5-0.1,0.8-0.1c0.3,0,0.6,0,0.9,0
		c0.9,0,1.7,0.1,2.5,0.2c0.8,0.1,1.6,0.2,2.5,0.2c0.2,0,0.6,0,1.2,0s1.2,0,1.8,0.1c0.7,0,1.3,0,1.8,0.1C22.6,46.2,23,46.2,23.2,46.3
		z M15.3,56.2c0,0.2,0,0.4-0.1,0.5c0,0.2,0,0.3-0.1,0.4c0.5,0,0.9,0,1.3,0c0.4,0,0.9,0,1.3-0.1c-0.1-0.2-0.1-0.5,0-0.7
		c0-0.3,0.1-0.8,0.2-1.5c0.1-0.7,0.2-1.4,0.2-2.2c0.1-0.8,0.2-1.5,0.2-2.2c0.1-0.7,0.1-1.2,0.1-1.6c0-0.3,0-0.5,0-0.6
		c-0.6,0-1.3-0.1-2-0.1c-0.7,0-1.4-0.1-2.2-0.2c0,0.1,0.1,0.3,0.1,0.4c0,0.1,0.1,0.3,0.1,0.5c0.1,0.5,0.2,1,0.3,1.7
		c0.1,0.7,0.2,1.3,0.2,2c0.1,0.7,0.1,1.4,0.1,2C15.4,55.3,15.3,55.8,15.3,56.2z M37.6,49.4c0.4,0,0.7,0,1.1,0.1
		c0.4,0,0.8,0.1,1.1,0.2c0.3,0.1,0.6,0.2,0.9,0.4c0.2,0.2,0.3,0.3,0.3,0.6c0,0.4-0.2,0.7-0.7,0.9c-0.4,0.2-1,0.4-1.6,0.5
		c-0.6,0.1-1.3,0.2-2,0.2c-0.7,0-1.4,0-1.9,0c0,0.2,0,0.4,0,0.6c0,0.2,0,0.4,0,0.6c0,1.3-0.1,2.5-0.2,3.7c-0.1,1.2-0.3,2.3-0.6,3.3
		c-0.3,1-0.6,1.8-1,2.4c-0.4,0.6-0.9,0.9-1.5,0.9c-0.5,0-0.8-0.2-1.1-0.5c-0.3-0.3-0.5-0.7-0.6-1.2c-0.1-0.5-0.2-1-0.2-1.6
		c0-0.6-0.1-1.1-0.1-1.6c0-1.8-0.2-3.6-0.5-5.6c-0.3-2-0.8-3.9-1.5-5.6c-0.1-0.4-0.3-0.8-0.5-1.2c-0.2-0.4-0.4-0.8-0.6-1.2
		c-0.2-0.4-0.4-0.8-0.5-1.2c-0.1-0.4-0.2-0.8-0.2-1.2c0-0.8,0.3-1.4,0.8-1.8c0.5-0.4,1.1-0.5,1.8-0.5c0.5,0,1.1,0.1,1.7,0.3
		s1.2,0.5,1.6,0.8c0.2,0.2,0.4,0.4,0.6,0.6c0.1,0.2,0.3,0.5,0.4,0.7c0.1,0.3,0.2,0.5,0.3,0.8c0.1,0.3,0.2,0.5,0.4,0.8
		c0.4,0.2,0.7,0.8,0.9,1.7c0.3,1,0.5,2.1,0.6,3.5c0.5-0.1,1.1-0.2,1.6-0.3C36.9,49.5,37.3,49.4,37.6,49.4z"/>
	<path class="st1" d="M51.5,49.4c1.1,0.2,1.9,0.8,2.4,1.7c0.5,0.9,0.8,1.9,0.8,3c0,0.6-0.1,1.2-0.3,1.8c-0.2,0.6-0.4,1.1-0.8,1.6
		c-0.3,0.5-0.8,0.9-1.3,1.2c-0.5,0.3-1.1,0.4-1.7,0.4c-1,0-1.9-0.2-2.8-0.6c-0.8-0.4-1.5-0.8-2.1-1.4c-0.6-0.5-1-1.1-1.3-1.8
		c-0.3-0.6-0.5-1.2-0.5-1.7c0-0.5,0.1-0.9,0.4-1.5c0.2-0.5,0.6-1,1.1-1.5c0.5-0.4,1.1-0.8,1.9-1.1c0.7-0.3,1.6-0.4,2.7-0.4
		c0.3,0,0.5,0,0.8,0C51.1,49.4,51.3,49.4,51.5,49.4z M49.2,52.5h-0.4c-0.5,0-0.9,0.1-1.1,0.4c-0.2,0.3-0.3,0.5-0.3,0.7
		c0,0.3,0.1,0.6,0.4,0.9c0.3,0.3,0.7,0.5,1.2,0.5c0.3,0,0.6-0.1,0.7-0.4c0.2-0.3,0.2-0.6,0.2-0.9C49.9,53.2,49.7,52.7,49.2,52.5z
		 M64.5,45.1c0.3,0.1,0.5,0.5,0.7,1c0.2,0.5,0.4,1.2,0.5,2c0.1,0.8,0.3,1.7,0.3,2.7c0.1,1,0.1,2,0.1,3.1c0,1.3-0.1,2.5-0.2,3.7
		c-0.1,1.2-0.3,2.3-0.6,3.3c-0.3,1-0.6,1.8-1,2.4c-0.4,0.6-0.9,0.9-1.5,0.9c-0.5,0-0.8-0.2-1.1-0.5c-0.3-0.3-0.5-0.7-0.6-1.2
		c-0.1-0.5-0.2-1-0.2-1.6c0-0.6-0.1-1.1-0.1-1.6c0-1.8-0.2-3.6-0.5-5.6c-0.3-2-0.8-3.8-1.5-5.6c-0.1-0.4-0.3-0.8-0.5-1.2
		c-0.2-0.4-0.4-0.8-0.6-1.2c-0.2-0.4-0.3-0.8-0.5-1.2c-0.1-0.4-0.2-0.8-0.2-1.2c0-0.8,0.3-1.4,0.8-1.8c0.5-0.4,1.1-0.5,1.8-0.5
		c0.5,0,1.1,0.1,1.7,0.3c0.6,0.2,1.2,0.5,1.6,0.8c0.2,0.2,0.4,0.4,0.6,0.6c0.1,0.2,0.3,0.5,0.4,0.7c0.1,0.3,0.2,0.5,0.3,0.8
		C64.2,44.6,64.4,44.9,64.5,45.1z"/>
	<path class="st1" d="M52.7,14.5c-3.3-0.1-4.3-1.3-4.6-4.2c-0.1-1.2-0.7-1.8-1.8-2.1c-0.1,0-0.3-0.1-0.4-0.2
		c0.8-0.5,1.4-0.9,2.2-1.3c1.5-0.8,3.1-0.7,4.2,0.6c0.7,0.8,1.5,1,2.6,1.2c1.4,0.2,2.9,0.4,4.2,1c2.1,1,4.1,0.8,6.1-0.1
		c0.2-0.1,0.4-0.2,0.6-0.2c0.1,0,0.1,0,0.3,0c0,0.6,0,1.2,0,1.8c-1.9,0.5-4.1-0.4-6.1,0.7c0.5,0.4,0.9,0.7,1.3,0.9
		c-1.4,0.3-2.8,0.7-4.2,1c0,0.1,0,0.2-0.1,0.3C55,14.7,52.7,14.5,52.7,14.5z M56.3,14.5"/>
	<g>
		<path class="st0" d="M7.1,81.8c0,0.2,0,0.3,0.1,0.5c0.1,0.1,0.3,0.1,0.6,0.1c0.3,0,0.5,0,0.6,0c0.2,0,0.5,0,0.8,0
			c0.3,0,0.5,0,0.8,0c0.6,0,1,0,1.3,0.1c0.5,0.1,0.8,0.3,0.8,0.7c0,0.1,0,0.2-0.1,0.3c-0.1,0.1-0.1,0.2-0.2,0.3l-0.3,0.1
			c-0.2,0-0.4,0-0.7,0c-0.7-0.1-1.1-0.1-1.1-0.1c-0.4,0-0.9,0-1.3,0c-1.3,0.1-2.1,0.1-2.2,0.1c-0.3,0-0.6-0.1-0.7-0.4
			c-0.1-0.3-0.2-0.7-0.2-1.2c0-0.3,0-0.5,0-0.7c0-0.2,0-0.4,0.1-0.7c-0.1-0.1-0.2-0.3-0.3-0.3c-0.1-0.1-0.1-0.3-0.1-0.4
			c0-0.1,0-0.2,0.1-0.3s0.2-0.1,0.4-0.2c0-0.5,0.1-1,0.2-1.5c0.1-0.5,0.2-1.1,0.3-1.6c0-0.1-0.1-0.1-0.1-0.3C5.7,76.1,5.6,76,5.6,76
			c0-0.4,0.5-0.6,1.6-0.7c0.5-0.1,1.3-0.1,2.2-0.1c0.9,0,1.6,0.1,1.9,0.2c0.4,0.1,0.5,0.3,0.5,0.6c0,0.1-0.1,0.3-0.2,0.5
			c-0.2,0.2-0.3,0.3-0.5,0.2c-0.2-0.1-0.4-0.1-0.5-0.1c-0.2,0-0.4,0-0.7,0c-0.1,0-0.2,0-0.4,0s-0.3,0-0.4,0c-0.3,0-0.6,0-0.9,0
			c-0.2,0-0.4,0.1-0.6,0.2c-0.1,0.2-0.2,0.6-0.3,1.3c-0.1,0.7-0.1,1.1-0.1,1.4c0.2,0,0.5,0,0.8,0c0.4,0,0.6,0,0.8,0
			c0.7,0,1.2,0,1.4,0.1c0.6,0.1,0.9,0.3,0.9,0.7c0,0.3-0.2,0.6-0.6,0.6c-0.5-0.1-0.9-0.1-1.4-0.1c-0.2,0-0.6,0-1.1,0
			c-0.5,0-0.8,0-1,0c0,0.1,0,0.3,0,0.6C7.2,81.6,7.1,81.7,7.1,81.8z"/>
		<path class="st0" d="M21,77.7c0.6,0,1,0.4,1.2,1.1c0.1,0.4,0.2,1,0.2,1.6V81c0,0.8-0.1,1.4-0.2,1.8c-0.2,0.7-0.5,1-1,1
			c-0.2,0-0.4-0.1-0.6-0.2c-0.2-0.1-0.3-0.2-0.3-0.4c0-0.2,0.1-0.6,0.2-1c0.1-0.5,0.2-0.8,0.2-1.1c0-0.4,0-0.6,0-0.7
			c0-0.4-0.1-0.6-0.3-0.6c-0.6,0.3-1.1,0.8-1.5,1.6c-0.4,0.8-0.6,1.5-0.6,2c0,0.1-0.1,0.3-0.3,0.3c-0.2,0.1-0.4,0.1-0.6,0.1
			c-0.3,0-0.5-0.1-0.6-0.3c-0.1-0.2-0.2-0.4-0.2-0.7c0-0.4,0.1-1.3,0.2-2.5c0.1-0.6,0.1-1.1,0.1-1.5c0-0.1,0-0.3-0.1-0.5
			c-0.1-0.2-0.1-0.3-0.1-0.4c0-0.2,0.1-0.3,0.4-0.4c0.2-0.1,0.5-0.1,0.7-0.1c0.3,0,0.6,0.1,0.7,0.3c0.1,0.2,0.2,0.4,0.2,0.8
			c0,0.2,0,0.4-0.1,0.7c0,0.3-0.1,0.5-0.1,0.5c0.4-0.6,0.7-1,1-1.3C20,77.9,20.5,77.7,21,77.7z"/>
		<path class="st0" d="M32.1,77.5c0.2,0,0.4,0.1,0.7,0.2c0.2,0.1,0.3,0.3,0.3,0.4c0,0.2,0,0.4-0.1,0.6c-0.2,0.6-0.2,1-0.2,1.1
			c0,0.5,0,1,0,1.6c0,0.5,0,1,0,1.6c0,0.9-0.3,1.7-0.8,2.2c-0.6,0.6-1.5,0.9-2.8,0.9c-0.6,0-1.1-0.1-1.7-0.3c-0.7-0.2-1-0.5-1-0.9
			c0-0.2,0.1-0.3,0.2-0.5s0.3-0.3,0.5-0.3c0.3,0.2,0.6,0.3,1,0.5s0.7,0.2,1,0.2c0.6,0,1-0.2,1.3-0.5c0.3-0.3,0.4-0.7,0.4-1.1l0-0.6
			c-0.3,0.3-0.5,0.6-0.8,0.7c-0.3,0.2-0.7,0.3-1.1,0.3c-0.7,0-1.2-0.2-1.6-0.8C27.2,82.5,27,82,27,81.5c0-0.8,0.3-1.6,0.8-2.5
			c0.7-1,1.5-1.5,2.4-1.5c0.5,0,0.9,0.1,1.2,0.3c0.1-0.1,0.2-0.2,0.3-0.2C31.9,77.6,32,77.5,32.1,77.5z M30.4,78.7
			c-0.5,0-0.9,0.4-1.2,1.2c-0.3,0.7-0.4,1.2-0.4,1.7c0,0.2,0,0.4,0.1,0.5c0.1,0.2,0.3,0.3,0.5,0.3c0.5,0,0.9-0.4,1.3-1.1
			c0.3-0.6,0.4-1.1,0.4-1.6c0-0.3,0-0.5-0.1-0.6C30.9,78.8,30.7,78.7,30.4,78.7z"/>
		<path class="st0" d="M39,83.8c-0.4,0-0.7-0.1-0.9-0.4c-0.1-0.2-0.2-0.5-0.2-0.8c0-0.6,0-1.3,0.1-2c0.1-0.7,0.1-1.4,0.2-2.2
			c0.1-0.8,0.1-1.4,0.1-1.9c0,0,0-0.1-0.1-0.3c0-0.1-0.1-0.2-0.1-0.3c0-0.1,0.1-0.3,0.4-0.3c0.3-0.1,0.5-0.1,0.7-0.1
			c0.3,0,0.5,0,0.6,0.1c0.2,0.1,0.2,0.2,0.2,0.4c0,0.2,0,0.4-0.1,0.7C40,77,40,77.3,39.9,77.5c-0.2,1.5-0.3,2.9-0.3,4.4
			c0,0.1,0,0.3,0.1,0.5c0.1,0.5,0.2,0.8,0.2,0.9c0,0.1-0.1,0.3-0.3,0.4C39.4,83.8,39.2,83.8,39,83.8z"/>
		<path class="st0" d="M45.8,83.8c-0.4,0-0.7-0.1-0.9-0.4c-0.1-0.2-0.2-0.5-0.2-0.8c0-0.4,0-1.1,0.1-2c0.1-0.9,0.1-1.6,0.1-2
			c0-0.1,0-0.1-0.1-0.2s-0.1-0.2-0.1-0.2c0-0.2,0.1-0.3,0.4-0.4c0.2-0.1,0.5-0.1,0.7-0.1c0.3,0,0.5,0,0.6,0.1
			c0.2,0.1,0.2,0.2,0.2,0.4c0,0.4-0.1,1-0.2,1.9c-0.1,0.9-0.2,1.6-0.2,2.1c0,0.1,0,0.3,0.1,0.5c0.1,0.4,0.1,0.7,0.1,0.7
			c0,0.1-0.1,0.3-0.3,0.3C46.2,83.7,46,83.8,45.8,83.8z M46,75.6c0.3,0,0.6,0.1,0.9,0.2c0.3,0.1,0.4,0.3,0.4,0.5
			c0,0.2-0.1,0.3-0.3,0.4c-0.2,0.1-0.4,0.2-0.7,0.2c-0.3,0-0.6-0.1-0.9-0.2c-0.3-0.1-0.4-0.3-0.4-0.5c0-0.2,0.1-0.3,0.3-0.4
			C45.5,75.6,45.7,75.6,46,75.6z"/>
		<path class="st0" d="M52.3,82.2c0.3,0.2,0.6,0.3,0.9,0.4c0.3,0.1,0.8,0.2,1.2,0.2c0.4,0,0.6,0,0.8-0.1c0.2,0,0.3-0.1,0.3-0.2
			c0-0.1-0.7-0.3-2-0.8c-1.3-0.5-2-1-2-1.5c0-0.6,0.6-1.2,1.7-1.8c1.1-0.5,2-0.8,3-0.8c0.5,0,0.8,0.1,1,0.3c0.2,0.2,0.3,0.5,0.3,0.9
			c0,0.3-0.1,0.5-0.2,0.8c-0.2,0.4-0.5,0.5-0.8,0.5c-0.2,0-0.4-0.1-0.5-0.2c-0.2-0.1-0.3-0.2-0.3-0.4c0,0,0.1-0.2,0.2-0.4
			c0.1-0.1,0.1-0.2,0.1-0.3c0-0.1-0.1-0.2-0.3-0.2c-0.4,0-0.8,0.1-1.4,0.4c-0.6,0.3-0.9,0.6-0.9,0.8c0,0.2,0.6,0.5,1.9,0.9
			c1.3,0.4,1.9,0.9,1.9,1.4c0,0.5-0.3,0.9-1,1.1c-0.6,0.2-1.2,0.3-2,0.3c-0.6,0-1.1-0.1-1.7-0.2c-0.7-0.2-1.1-0.5-1.1-0.8
			c0-0.1,0.1-0.2,0.2-0.4C52,82.3,52.2,82.2,52.3,82.2z"/>
		<path class="st0" d="M66.3,77.6c0.4,0,0.8,0.4,1,1.1c0.3,0.7,0.4,1.7,0.4,2.8v0.5c0,0.5-0.1,0.9-0.2,1.2c-0.2,0.4-0.5,0.6-0.9,0.6
			c-0.2,0-0.4,0-0.7-0.1c-0.2-0.1-0.4-0.2-0.4-0.4c0-0.1,0.1-0.4,0.2-0.9C66,82.2,66,82,66,81.9v-0.2c0-0.6,0-1.1-0.1-1.4
			c-0.1-0.3-0.2-0.5-0.3-0.6c-0.6,0.5-1,1.1-1.3,1.8c-0.3,0.7-0.5,1.4-0.5,2c0,0.1-0.1,0.3-0.3,0.4C63.4,83.9,63.2,84,63,84
			c-0.3,0-0.6-0.1-0.7-0.2c-0.1-0.2-0.2-0.4-0.2-0.7c0-0.7,0.1-1.5,0.2-2.4c0.1-0.9,0.2-1.8,0.3-2.7c0.1-0.9,0.2-1.7,0.2-2.3
			c0-0.2,0.1-0.3,0.3-0.3c0.2-0.1,0.4-0.1,0.6-0.1c0.4,0,0.6,0.1,0.8,0.3c0.1,0.2,0.2,0.4,0.2,0.7c0,0.4,0,0.8-0.1,1.3
			c-0.2,1.1-0.3,1.8-0.3,2.1c0.5-0.6,0.8-1,0.9-1.1C65.5,77.9,65.9,77.6,66.3,77.6z"/>
	</g>
</g>
</svg>
